<svg width="24" height="24" viewBox="0 0 24 24" fill="none" xmlns="http://www.w3.org/2000/svg">
  <circle cx="12" cy="12" r="10" fill="currentColor"/>
  <path d="M12 6C11.1667 6 10.5 6.33333 10 7C9.5 7.66667 9.25 8.5 9.25 9.5H10.75C10.75 8.83333 10.9167 8.33333 11.25 8C11.5833 7.66667 12 7.5 12.5 7.5C13 7.5 13.4167 7.66667 13.75 8C14.0833 8.33333 14.25 8.75 14.25 9.25C14.25 9.58333 14.1667 9.875 14 10.125C13.8333 10.375 13.5833 10.6667 13.25 11L12.5 11.75C12 12.25 11.6667 12.6667 11.5 13C11.3333 13.3333 11.25 13.75 11.25 14.25V15H12.75V14.25C12.75 13.9167 12.8333 13.6667 13 13.5C13.1667 13.3333 13.4167 13.0833 13.75 12.75L14.5 12C14.8333 11.6667 15.0833 11.375 15.25 11.125C15.5833 10.625 15.75 10.0833 15.75 9.5C15.75 8.5 15.4167 7.66667 14.75 7C14.0833 6.33333 13.25 6 12.25 6H12Z" fill="white"/>
  <circle cx="12" cy="17" r="1" fill="white"/>
</svg>
